<svg width="330" height="78" viewBox="0 0 330 78" fill="none" xmlns="http://www.w3.org/2000/svg">
<path d="M166.543 13.8559C171.593 17.4452 178.536 21.9972 184.634 23.8386C189.068 25.1759 194.222 26.4118 198.87 25.4425C204.118 24.3478 207.643 19.7066 207.643 13.8946C207.643 8.0839 204.118 3.44249 198.87 2.34782C194.222 1.37449 189.069 2.61452 184.634 3.95186C179.817 5.40652 173.89 8.65056 166.543 13.8559ZM195.317 27.7905C191.449 27.7905 187.534 26.8025 184.057 25.7532C177.201 23.6825 169.465 18.4331 164.242 14.6651C163.981 14.4771 163.826 14.1758 163.826 13.8545C163.826 13.5331 163.981 13.2318 164.242 13.0425C172.297 7.23182 178.778 3.63191 184.057 2.03858C188.734 0.626575 194.199 -0.673439 199.279 0.389227C205.478 1.68389 209.643 7.11057 209.643 13.8946C209.643 20.6786 205.478 26.1065 199.279 27.4012C197.977 27.6732 196.65 27.7905 195.317 27.7905Z" fill="white"/>
<path d="M134.334 1.9999C133.131 1.9999 131.941 2.10515 130.782 2.34782C125.534 3.44249 122.009 8.0839 122.009 13.8946C122.009 19.7066 125.534 24.3478 130.782 25.4425C135.427 26.4118 140.583 25.1759 145.018 23.8386C151.117 21.9972 158.059 17.4452 163.109 13.8559C155.762 8.65056 149.835 5.40652 145.018 3.95186C141.69 2.94786 137.954 1.9999 134.334 1.9999ZM134.335 27.7905C133.002 27.7905 131.675 27.6732 130.373 27.4012C124.174 26.1065 120.009 20.6786 120.009 13.8946C120.009 7.11057 124.174 1.68389 130.373 0.389227C135.454 -0.673439 140.918 0.626575 145.595 2.03858C150.874 3.63191 157.355 7.23182 165.41 13.0425C165.671 13.2318 165.826 13.5331 165.826 13.8545C165.826 14.1758 165.671 14.4771 165.41 14.6651C160.187 18.4331 152.451 23.6825 145.595 25.7532C142.118 26.8025 138.203 27.7905 134.335 27.7905Z" fill="white"/>
<path d="M97.0086 19.6626C96.6299 20.4506 96.3485 21.2279 96.1605 21.9759C95.5938 24.2346 96.0552 29.0693 98.0672 31.5C98.8779 32.48 99.8138 32.9279 100.933 32.8599C101.931 32.8026 102.631 32.3827 103.069 31.5773C103.971 29.916 103.583 27.0546 102.657 25.4266C101.421 23.2599 99.4659 21.2773 97.0086 19.6626ZM174.767 28.6919C176.827 30.0399 178.921 31.3933 181.01 32.696C186.434 36.0773 192.775 39.5533 199.422 38.0573C202.203 37.4293 204.629 35.6466 205.906 33.2879C207.037 31.1986 207.197 28.8 206.354 26.5333C204.369 21.1947 195.954 20.5026 191.111 21.3186C185.409 22.28 179.245 24.8866 174.767 28.6919ZM176.385 52.0039C175.307 52.0039 174.181 51.8067 173.058 51.3893C168.553 49.7227 164.867 44.6719 166.791 37.1466C167.581 34.0506 169.271 31.3106 171.521 28.9546C171.407 28.8786 171.293 28.8053 171.179 28.7293L169.205 27.4333C156.145 18.8787 142.641 10.0346 127.115 8.15195C111.235 6.23328 101.882 12.0106 97.9965 17.9212C100.77 19.7226 102.986 21.9666 104.394 24.4359C105.61 26.5693 106.103 30.1812 104.826 32.5319C104.053 33.9546 102.745 34.76 101.047 34.8573C99.3152 34.9413 97.7379 34.2373 96.5259 32.7746C93.9885 29.7079 93.5525 24.1546 94.2205 21.4879C94.4712 20.4852 94.8059 19.5226 95.2205 18.6026C94.8245 18.3906 94.4179 18.1893 94.0045 17.9947C83.9979 13.344 72.6406 18.6667 64.3499 22.556C52.6886 28.0267 41.2939 30.7986 30.4765 30.7986C30.4445 30.7986 30.4099 30.7986 30.3779 30.7986C19.1286 30.7799 5.26586 26.9347 0.0991972 16.1947C-0.140803 15.6973 0.0698977 15.0986 0.567231 14.8599C1.06456 14.6186 1.6632 14.8292 1.90187 15.3266C6.6672 25.2332 19.7392 28.7812 30.3806 28.7986C30.4112 28.7986 30.4459 28.7986 30.4765 28.7986C40.9979 28.7986 52.1072 26.0906 63.5006 20.7466C72.1499 16.6893 83.9992 11.1345 94.8485 16.1825C95.2912 16.3879 95.7259 16.6053 96.1485 16.8306C98.5032 12.9293 102.474 9.93334 107.863 8.04401C113.571 6.04268 120.681 5.35597 127.354 6.16797C143.346 8.10397 157.666 17.4853 170.301 25.7626L172.277 27.0573C172.517 27.2146 172.757 27.3732 172.998 27.5319C177.889 23.1826 184.699 20.3733 190.778 19.3466C196.463 18.3866 205.806 19.3199 208.23 25.8359C209.275 28.6519 209.075 31.6373 207.663 34.2413C206.093 37.1413 203.249 39.2439 199.862 40.0079C192.489 41.6759 185.714 37.9852 179.953 34.3932C177.705 32.9919 175.458 31.5346 173.254 30.0919C171.066 32.2973 169.445 34.8359 168.729 37.6413C167.003 44.3946 170.355 48.2586 173.751 49.5146C176.343 50.4772 179.642 50.0879 180.923 47.4866C181.169 46.9919 181.77 46.788 182.263 47.0333C182.758 47.2773 182.962 47.8773 182.718 48.3733C181.57 50.696 179.145 52.0039 176.385 52.0039Z" fill="white"/>
<path d="M232.516 19.6626C230.057 21.2773 228.102 23.2612 226.868 25.4266C225.94 27.0559 225.553 29.916 226.456 31.5773C226.893 32.3827 227.592 32.8026 228.59 32.8599C229.713 32.9279 230.646 32.48 231.457 31.5C233.468 29.0693 233.929 24.2346 233.362 21.9759C233.176 21.2279 232.894 20.4506 232.516 19.6626ZM134.8 21.0319C130.177 21.0319 124.718 22.3706 123.17 26.5346C122.328 28.8 122.486 31.1986 123.618 33.2866C124.896 35.6466 127.32 37.4293 130.101 38.0573C136.749 39.552 143.089 36.076 148.514 32.696C150.602 31.3933 152.696 30.0399 154.756 28.6919C150.278 24.8866 144.116 22.28 138.412 21.3186C137.348 21.1386 136.106 21.0319 134.8 21.0319ZM153.14 52.0039C150.378 52.0039 147.956 50.696 146.806 48.3733C146.564 47.8773 146.766 47.2773 147.261 47.0333C147.756 46.788 148.356 46.9919 148.601 47.4866C149.884 50.0866 153.18 50.4759 155.774 49.5146C159.169 48.2586 162.521 44.3933 160.796 37.6413C160.078 34.8359 158.458 32.2973 156.269 30.0919C154.066 31.5346 151.818 32.9919 149.572 34.3932C143.81 37.9839 137.042 41.6746 129.661 40.0079C126.274 39.2439 123.43 37.1413 121.86 34.24C120.449 31.636 120.249 28.6519 121.296 25.8359C123.718 19.3199 133.06 18.3813 138.745 19.3466C144.824 20.3719 151.634 23.1812 156.525 27.5319C156.766 27.3732 157.008 27.2146 157.246 27.0573L159.222 25.7626C171.857 17.4853 186.178 8.10397 202.17 6.16796C208.848 5.3573 215.955 6.04268 221.661 8.04401C227.049 9.93334 231.021 12.9292 233.374 16.8319C233.798 16.6052 234.232 16.3879 234.676 16.1825C245.528 11.1319 257.373 16.6879 266.024 20.7466C277.416 26.0893 288.526 28.7986 299.048 28.7986C299.08 28.7986 299.112 28.7986 299.144 28.7986C309.786 28.7812 322.856 25.2332 327.622 15.3266C327.86 14.8292 328.46 14.6186 328.957 14.8599C329.454 15.0986 329.664 15.6973 329.424 16.1947C324.257 26.9347 310.396 30.7799 299.146 30.7986C299.114 30.7986 299.08 30.7986 299.048 30.7986C288.23 30.7986 276.836 28.0267 265.176 22.556C256.882 18.6667 245.525 13.3387 235.52 17.9947C235.104 18.1893 234.698 18.3906 234.302 18.6026C234.717 19.5226 235.052 20.4852 235.302 21.4879C235.97 24.1546 235.534 29.7079 232.997 32.7746C231.788 34.2386 230.193 34.9373 228.476 34.8573C226.778 34.76 225.47 33.9559 224.697 32.5319C223.42 30.1812 223.914 26.5706 225.132 24.4359C226.537 21.9679 228.753 19.7227 231.526 17.9227C227.641 12.0107 218.285 6.23195 202.41 8.15195C186.882 10.0346 173.378 18.88 160.318 27.4333L158.345 28.7293C158.232 28.8053 158.117 28.8786 158.002 28.9546C160.252 31.3106 161.942 34.0506 162.733 37.1466C164.656 44.6719 160.972 49.7227 156.468 51.3893C155.345 51.8053 154.217 52.0039 153.14 52.0039Z" fill="white"/>
<path d="M154.938 57.461C158.278 59.9303 162.835 64.2356 164.826 70.3743C166.817 64.2356 171.374 59.9303 174.714 57.461C169.877 57.1903 166.333 54.0955 164.826 52.5155C163.319 54.0942 159.774 57.1903 154.938 57.461ZM164.826 77.7183C164.274 77.7183 163.826 77.2703 163.826 76.7183C163.826 63.7929 150.262 56.841 150.126 56.7716C149.658 56.5383 149.45 55.9822 149.649 55.4969C149.847 55.0129 150.384 54.7636 150.884 54.9276C158.63 57.453 163.973 50.4729 164.026 50.4022C164.214 50.1516 164.512 50.0035 164.825 50.0035H164.826C165.139 50.0035 165.435 50.1516 165.626 50.4009C165.843 50.6903 171.061 57.4476 178.769 54.9276C179.266 54.765 179.805 55.0129 180.003 55.4969C180.202 55.9822 179.994 56.5383 179.526 56.7716C179.39 56.841 165.826 63.7929 165.826 76.7183C165.826 77.2703 165.378 77.7183 164.826 77.7183Z" fill="white"/>
</svg>
