<svg width="498" height="130" viewBox="0 0 498 130" fill="none" xmlns="http://www.w3.org/2000/svg">
<g clip-path="url(#clip0_259_827)">
<g clip-path="url(#clip1_259_827)">
<path fill-rule="evenodd" clip-rule="evenodd" d="M61.2767 102.09H49.9997V20.5145H61.2767V17.4869H26V20.5145H37.277V102.09H26V105.117H61.2767V102.09Z" fill="white"/>
<path fill-rule="evenodd" clip-rule="evenodd" d="M71.0899 102.09H63.9121V105.117H88.4051V102.09H81.3294V77.7159C81.3294 67.8677 88.133 55.6042 97.0967 55.6042C102.318 55.6042 105.329 57.0329 105.329 66.609V102.09H98.5255V105.117H122.678V102.09H115.586V64.9761C115.586 52.8997 104.7 51.8622 99.9712 51.8622C90.3611 51.8622 85.2754 57.4922 81.5675 65.7586H81.3294V51.8622C78.9053 52.4004 76.4428 52.7473 73.9644 52.8997C71.5336 53.1288 69.0917 53.2197 66.6506 53.1719H63.9121V56.1825H71.0899V102.107" fill="white"/>
<path fill-rule="evenodd" clip-rule="evenodd" d="M166.376 88.8572C163.213 98.2972 155.882 104.472 148.279 104.063C141.475 103.672 137.393 100.917 135.386 96.5793C133.541 91.5527 132.619 86.2343 132.664 80.88C132.664 63.7009 135.93 54.516 148.517 54.516C151.391 54.516 159.692 55.9618 159.692 59.4996C159.692 60.9284 155.49 61.5918 155.49 66.6945C155.438 67.5174 155.562 68.3419 155.853 69.1135C156.143 69.8851 156.595 70.5861 157.177 71.1699C157.759 71.7538 158.459 72.2072 159.23 72.5001C160 72.7929 160.825 72.9186 161.648 72.8687C165.356 72.8687 167.55 69.4669 167.55 65.9291C167.55 55.8257 155.49 51.8966 146.952 51.8966C139.485 51.8966 120.707 57.5266 120.707 80.812C120.707 89.8608 126.898 106.785 147.207 106.785C160.814 106.257 166.138 98.1271 169.115 88.8232H166.376" fill="white"/>
<path fill-rule="evenodd" clip-rule="evenodd" d="M186.87 51.8622C182.041 52.8839 177.108 53.3236 172.174 53.1719H168.075V56.1825H177.005V102.107H168.075V105.134H197.365V102.09H187.261V77.1716C187.323 72.2694 188.436 67.4375 190.527 63.0031C191.99 59.6 194.646 56.8481 197.994 55.264C198.385 55.264 199.168 55.264 199.168 56.0634C198.956 56.9672 198.792 57.8812 198.674 58.8019C198.779 60.1338 199.346 61.3872 200.278 62.3443C201.21 63.3013 202.448 63.9016 203.777 64.0406C206.567 64.0406 209.985 62.4758 209.985 59.1931C209.985 54.2094 206.414 51.8622 201.974 51.8622C194.762 51.8622 189.541 58.2746 187.142 64.1937H186.904V51.8622" fill="white"/>
<path fill-rule="evenodd" clip-rule="evenodd" d="M254.397 88.8568C252.543 97.4974 243.766 104.046 236.299 104.046C221.995 104.046 220.294 93.5683 220.294 80.5904V75.1986H257.424C257.271 60.894 247.219 51.8622 233.816 51.8622C218.202 51.8622 207.996 66.0137 207.996 81.5089C207.996 96.0686 220.872 106.818 234.241 106.818C245.756 106.818 254.652 101.052 257.322 88.8568H254.448M220.43 71.3885C220.455 68.4608 220.896 65.5515 221.739 62.748C221.978 61.8295 225.549 54.4646 233.408 54.4646C239.939 54.4646 245.45 57.4922 245.45 66.9322V71.3885H220.43Z" fill="white"/>
<path fill-rule="evenodd" clip-rule="evenodd" d="M300.85 68.2598C301.561 72.061 301.874 75.9258 301.785 79.7919C301.785 93.3991 300.085 96.0695 295.101 100.526C292.511 102.577 289.364 103.804 286.069 104.047C275.285 104.047 272.802 97.3622 272.802 77.1725C272.802 67.8686 273.193 54.4655 285.389 54.4655C297.584 54.4655 300.306 66.3718 300.85 68.2598ZM311.481 102.091V13.6438C306.634 14.4858 301.72 14.8787 296.802 14.8174H292.465V17.743H301.241V61.8304H301.003C299.561 58.8675 297.322 56.3653 294.537 54.6046C291.751 52.8439 288.531 51.8945 285.236 51.8631C269.621 51.8631 260.845 64.4498 260.845 79.0775C260.845 94.0285 270.693 106.751 283.96 106.751C287.41 106.909 290.836 106.109 293.859 104.44C296.882 102.771 299.384 100.298 301.088 97.2942H301.394V106.105C307.128 105.286 312.919 104.934 318.709 105.05V102.091H311.481Z" fill="white"/>
<path fill-rule="evenodd" clip-rule="evenodd" d="M347.741 105.117V102.09H339.985V51.8622C335.156 52.8831 330.223 53.3228 325.289 53.1719H320.952V56.1995H329.729V102.124H320.952V105.151H347.741" fill="white"/>
<path fill-rule="evenodd" clip-rule="evenodd" d="M367.405 13.5577C362.553 14.4001 357.633 14.793 352.709 14.7314H349.698V17.742H357.148V101.954H349.698V105.117C355.498 104.981 361.111 105.764 366.86 106.172V97.1061H367.167C370.279 102.345 376.079 106.818 382.628 106.818C396.677 106.818 407.801 95.5413 407.801 79.2806C407.801 67.3743 400.725 51.8621 382.475 51.8621C379.434 52.0329 376.485 52.961 373.894 54.5622C371.304 56.1633 369.155 58.3866 367.643 61.0299H367.405V13.5577ZM367.643 67.2723C367.932 63.3262 373.987 54.3964 382.628 54.3964C395.367 54.3964 395.895 68.8541 395.895 78.6853C395.895 89.1799 395.759 103.978 382.628 103.978C378.682 103.978 367.013 101.75 367.013 85.2678C367.013 81.9681 367.303 70.8271 367.643 67.2893" fill="white"/>
<path fill-rule="evenodd" clip-rule="evenodd" d="M435.919 105.118V102.091H425.833V13.6438C420.982 14.4959 416.062 14.8888 411.137 14.8174H405.524V17.76H415.508V102.091H405.456V105.118H435.919Z" fill="white"/>
<path fill-rule="evenodd" clip-rule="evenodd" d="M479.478 88.8568C477.624 97.4974 468.847 104.046 461.38 104.046C447.076 104.046 445.375 93.5683 445.375 80.5904V75.1986H482.506C482.404 60.894 472.3 51.8622 458.897 51.8622C443.283 51.8622 433.026 66.0137 433.026 81.5089C433.026 96.0686 445.919 106.818 459.288 106.818C470.837 106.818 479.699 101.052 482.404 88.8568H479.478ZM445.46 71.3885C445.485 68.4608 445.926 65.5515 446.77 62.748C447.008 61.8295 450.529 54.4646 458.438 54.4646C464.969 54.4646 470.531 57.4922 470.531 66.9322V71.3885H445.46Z" fill="white"/>
<path fill-rule="evenodd" clip-rule="evenodd" d="M61.2767 102.09H49.9997V20.5145H61.2767V17.4869H26V20.5145H37.277V102.09H26V105.117H61.2767V102.09Z" fill="white"/>
<path fill-rule="evenodd" clip-rule="evenodd" d="M71.0899 102.09H63.9121V105.117H88.4051V102.09H81.3294V77.7159C81.3294 67.8677 88.133 55.6042 97.0967 55.6042C102.318 55.6042 105.329 57.0329 105.329 66.609V102.09H98.5255V105.117H122.678V102.09H115.586V64.9761C115.586 52.8997 104.7 51.8622 99.9712 51.8622C90.3611 51.8622 85.2754 57.4922 81.5675 65.7586H81.3294V51.8622C78.9053 52.4004 76.4428 52.7473 73.9644 52.8997C71.5336 53.1288 69.0917 53.2197 66.6506 53.1719H63.9121V56.1825H71.0899V102.107" fill="white"/>
<path fill-rule="evenodd" clip-rule="evenodd" d="M166.376 88.8572C163.213 98.2972 155.882 104.472 148.279 104.063C141.475 103.672 137.393 100.917 135.386 96.5793C133.541 91.5527 132.619 86.2343 132.664 80.88C132.664 63.7009 135.93 54.516 148.517 54.516C151.391 54.516 159.692 55.9618 159.692 59.4996C159.692 60.9284 155.49 61.5918 155.49 66.6945C155.438 67.5174 155.562 68.3419 155.853 69.1135C156.143 69.8851 156.595 70.5861 157.177 71.1699C157.759 71.7538 158.459 72.2072 159.23 72.5001C160 72.7929 160.825 72.9186 161.648 72.8687C165.356 72.8687 167.55 69.4669 167.55 65.9291C167.55 55.8257 155.49 51.8966 146.952 51.8966C139.485 51.8966 120.707 57.5266 120.707 80.812C120.707 89.8608 126.898 106.785 147.207 106.785C160.814 106.257 166.138 98.1271 169.115 88.8232H166.376" fill="white"/>
<path fill-rule="evenodd" clip-rule="evenodd" d="M186.87 51.8622C182.041 52.8839 177.108 53.3236 172.174 53.1719H168.075V56.1825H177.005V102.107H168.075V105.134H197.365V102.09H187.261V77.1716C187.323 72.2694 188.436 67.4375 190.527 63.0031C191.99 59.6 194.646 56.8481 197.994 55.264C198.385 55.264 199.168 55.264 199.168 56.0634C198.956 56.9672 198.792 57.8812 198.674 58.8019C198.779 60.1338 199.346 61.3872 200.278 62.3443C201.21 63.3013 202.448 63.9016 203.777 64.0406C206.567 64.0406 209.985 62.4758 209.985 59.1931C209.985 54.2094 206.414 51.8622 201.974 51.8622C194.762 51.8622 189.541 58.2746 187.142 64.1937H186.904V51.8622" fill="white"/>
<path fill-rule="evenodd" clip-rule="evenodd" d="M254.397 88.8568C252.543 97.4974 243.766 104.046 236.299 104.046C221.995 104.046 220.294 93.5683 220.294 80.5904V75.1986H257.424C257.271 60.894 247.219 51.8622 233.816 51.8622C218.202 51.8622 207.996 66.0137 207.996 81.5089C207.996 96.0686 220.872 106.818 234.241 106.818C245.756 106.818 254.652 101.052 257.322 88.8568H254.448M220.43 71.3885C220.455 68.4608 220.896 65.5515 221.739 62.748C221.978 61.8295 225.549 54.4646 233.408 54.4646C239.939 54.4646 245.45 57.4922 245.45 66.9322V71.3885H220.43Z" fill="white"/>
<path fill-rule="evenodd" clip-rule="evenodd" d="M300.85 68.2598C301.561 72.061 301.874 75.9258 301.785 79.7919C301.785 93.3991 300.085 96.0695 295.101 100.526C292.511 102.577 289.364 103.804 286.069 104.047C275.285 104.047 272.802 97.3622 272.802 77.1725C272.802 67.8686 273.193 54.4655 285.389 54.4655C297.584 54.4655 300.306 66.3718 300.85 68.2598ZM311.481 102.091V13.6438C306.634 14.4858 301.72 14.8787 296.802 14.8174H292.465V17.743H301.241V61.8304H301.003C299.561 58.8675 297.322 56.3653 294.537 54.6046C291.751 52.8439 288.531 51.8945 285.236 51.8631C269.621 51.8631 260.845 64.4498 260.845 79.0775C260.845 94.0285 270.693 106.751 283.96 106.751C287.41 106.909 290.836 106.109 293.859 104.44C296.882 102.771 299.384 100.298 301.088 97.2942H301.394V106.105C307.128 105.286 312.919 104.934 318.709 105.05V102.091H311.481Z" fill="white"/>
<path fill-rule="evenodd" clip-rule="evenodd" d="M347.741 105.117V102.09H339.985V51.8622C335.156 52.8831 330.223 53.3228 325.289 53.1719H320.952V56.1995H329.729V102.124H320.952V105.151H347.741" fill="white"/>
<path fill-rule="evenodd" clip-rule="evenodd" d="M367.405 13.5577C362.553 14.4001 357.633 14.793 352.709 14.7314H349.698V17.742H357.148V101.954H349.698V105.117C355.498 104.981 361.111 105.764 366.86 106.172V97.1061H367.167C370.279 102.345 376.079 106.818 382.628 106.818C396.677 106.818 407.801 95.5413 407.801 79.2806C407.801 67.3743 400.725 51.8621 382.475 51.8621C379.434 52.0329 376.485 52.961 373.894 54.5622C371.304 56.1633 369.155 58.3866 367.643 61.0299H367.405V13.5577ZM367.643 67.2723C367.932 63.3262 373.987 54.3964 382.628 54.3964C395.367 54.3964 395.895 68.8541 395.895 78.6853C395.895 89.1799 395.759 103.978 382.628 103.978C378.682 103.978 367.013 101.75 367.013 85.2678C367.013 81.9681 367.303 70.8271 367.643 67.2893" fill="white"/>
<path fill-rule="evenodd" clip-rule="evenodd" d="M435.919 105.118V102.091H425.833V13.6438C420.982 14.4959 416.062 14.8888 411.137 14.8174H405.524V17.76H415.508V102.091H405.456V105.118H435.919Z" fill="white"/>
<path fill-rule="evenodd" clip-rule="evenodd" d="M479.478 88.8568C477.624 97.4974 468.847 104.046 461.38 104.046C447.076 104.046 445.375 93.5683 445.375 80.5904V75.1986H482.506C482.404 60.894 472.3 51.8622 458.897 51.8622C443.283 51.8622 433.026 66.0137 433.026 81.5089C433.026 96.0686 445.919 106.818 459.288 106.818C470.837 106.818 479.699 101.052 482.404 88.8568H479.478ZM445.46 71.3885C445.485 68.4608 445.926 65.5515 446.77 62.748C447.008 61.8295 450.529 54.4646 458.438 54.4646C464.969 54.4646 470.531 57.4922 470.531 66.9322V71.3885H445.46Z" fill="white"/>
<path fill-rule="evenodd" clip-rule="evenodd" d="M508.957 141.143C515.93 141.143 522.224 136.142 522.224 128.556C522.224 121.583 515.25 116.378 508.957 116.378C505.739 116.441 502.667 117.732 500.371 119.987C498.075 122.242 496.729 125.29 496.608 128.505C496.527 130.159 496.79 131.812 497.379 133.36C497.968 134.907 498.871 136.317 500.03 137.499C501.19 138.681 502.582 139.61 504.118 140.229C505.654 140.847 507.301 141.141 508.957 141.092" fill="#EC2227"/>
</g>
</g>
<defs>
<clipPath id="clip0_259_827">
<rect width="497.714" height="130" fill="white"/>
</clipPath>
<clipPath id="clip1_259_827">
<rect width="691.587" height="130" fill="white" transform="translate(26 11.1428)"/>
</clipPath>
</defs>
</svg>
