<svg width="358" height="240" viewBox="0 0 358 240" fill="none" xmlns="http://www.w3.org/2000/svg">
<g clip-path="url(#clip0_259_797)">
<g clip-path="url(#clip1_259_797)">
<path fill-rule="evenodd" clip-rule="evenodd" d="M64.2881 157.257H54.0059V161.604H89.1753V157.257H79.1374V122.259C79.1374 108.118 88.9067 90.5085 101.753 90.5085C109.251 90.5085 113.599 92.56 113.599 106.31V157.257H103.829V161.604H138.51V157.257H128.35V103.966C128.35 86.6252 112.719 85.1354 105.93 85.1354C92.1794 85.1354 84.828 93.2195 79.577 105.089H79.1374V85.1354C75.6815 85.9082 72.1699 86.4063 68.6354 86.6252C65.1123 86.9532 61.5734 87.0836 58.0357 87.016H54.128V91.3389H64.4102V157.282" fill="white"/>
<path fill-rule="evenodd" clip-rule="evenodd" d="M193.072 108.681C194.068 114.141 194.494 119.691 194.342 125.24C194.342 144.778 191.9 148.613 184.744 155.012C181.032 157.971 176.51 159.734 171.775 160.067C156.291 160.067 152.725 150.469 152.725 121.478C152.725 108.119 153.287 88.8735 170.798 88.8735C188.31 88.8735 192.291 105.97 193.072 108.681ZM208.288 157.258V30.2578C201.321 31.4692 194.257 32.0334 187.186 31.943H181.032V36.1437H193.634V99.4487H193.219C191.17 95.193 187.97 91.5965 183.981 89.0669C179.992 86.5373 175.375 85.1758 170.652 85.1367C148.231 85.1367 135.556 103.21 135.556 124.214C135.556 145.682 149.697 163.95 168.771 163.95C173.733 164.186 178.662 163.042 183.013 160.645C187.363 158.248 190.963 154.691 193.414 150.371H193.781V163.022C202.014 161.852 210.329 161.345 218.643 161.508V157.258H208.288Z" fill="white"/>
<path fill-rule="evenodd" clip-rule="evenodd" d="M260.334 161.604V157.257H249.197V85.1354C242.264 86.6079 235.179 87.2393 228.096 87.016H221.941V91.3633H234.543V157.306H221.941V161.653H260.334" fill="white"/>
<path fill-rule="evenodd" clip-rule="evenodd" d="M333.824 148.611C332.847 151.811 331.015 157.062 327.229 157.062C323.444 157.062 323.37 154.058 323.37 148.416V103.575C323.37 96.0526 323.37 85.1354 297.799 85.1354C275.379 85.1354 267.612 96.4433 267.612 103.209C267.612 108.484 270.47 112.245 275.599 112.245C276.64 112.3 277.682 112.133 278.653 111.753C279.625 111.374 280.504 110.791 281.233 110.044C281.961 109.297 282.522 108.404 282.877 107.423C283.232 106.442 283.373 105.396 283.292 104.356C283.292 98.1041 277.626 97.176 277.626 95.6618C277.626 90.2154 291.01 88.8965 295.137 88.8965C301.731 88.8965 308.716 91.5343 308.716 100.375V118.278C279.873 118.278 261.995 128.047 261.433 145.607C261.433 159.529 271.593 164.047 283.414 164.047C288.225 164.156 292.999 163.178 297.38 161.186C301.76 159.195 305.636 156.24 308.716 152.543C310.06 159.529 314.041 164.047 320.928 164.047C325.082 164.056 329.077 162.451 332.07 159.572C335.064 156.692 336.822 152.762 336.974 148.611H333.75M308.716 139.746C308.716 147.659 306.054 149.735 304.589 151.249C302.644 153.105 300.342 154.545 297.823 155.481C295.303 156.418 292.619 156.831 289.935 156.695C281.338 156.695 275.525 151.054 275.525 141.822C275.525 124.506 296.383 122.43 308.643 122.283L308.716 139.746Z" fill="white"/>
<path fill-rule="evenodd" clip-rule="evenodd" d="M37.4763 213.334C47.4898 213.334 56.5263 206.153 56.5263 195.26C56.5263 185.247 46.5129 177.773 37.4763 177.773C32.8563 177.864 28.4458 179.718 25.149 182.956C21.8521 186.193 19.9187 190.57 19.745 195.187C19.6294 197.562 20.0064 199.935 20.852 202.158C21.6977 204.38 22.9939 206.403 24.6591 208.101C26.3243 209.798 28.3225 211.132 30.5282 212.02C32.734 212.908 35.0995 213.33 37.4763 213.26" fill="#EC2227"/>
<path fill-rule="evenodd" clip-rule="evenodd" d="M40.7717 161.727C42.1639 103.111 51.6889 53.0193 51.6889 45.7412C51.6889 36.2161 47.3904 26.6666 38.1096 26.6666C28.8288 26.6666 24.5059 36.2161 24.5059 45.7412C24.5059 53.0681 34.0309 103.185 35.4963 161.727H40.7717Z" fill="white"/>
</g>
</g>
<defs>
<clipPath id="clip0_259_797">
<rect width="357.333" height="240" fill="white"/>
</clipPath>
<clipPath id="clip1_259_797">
<rect width="993.048" height="186.667" fill="white" transform="translate(-656 26.6667)"/>
</clipPath>
</defs>
</svg>
