<svg width="77" height="118" viewBox="0 0 77 118" fill="none" xmlns="http://www.w3.org/2000/svg">
<path d="M21.5082 117.167C21.1535 117.167 20.8002 117.126 20.4508 117.034C19.4375 116.766 18.5975 116.091 17.8389 115.357C18.9722 115.291 20.1095 114.846 21.1788 114.407C30.0388 110.765 38.9002 107.122 47.7602 103.481C53.6575 101.055 59.6615 98.5685 64.5402 94.4632C69.4188 90.3578 73.0815 84.2952 72.7162 77.9285C72.5122 74.3712 71.0842 70.9699 70.8815 67.4125C70.7242 64.6859 71.2922 61.9765 71.6495 59.2698C71.8495 57.7578 72.0082 56.2979 72.1309 54.8845C73.1389 52.7739 74.0108 50.6138 74.5428 48.3352C75.1642 45.6792 74.7268 42.1139 72.4175 41.0792C72.1308 32.4592 71.2989 24.4219 72.3615 13.6485C72.6469 10.7632 72.9642 7.44055 72.1108 4.80589C72.1975 4.67922 72.2868 4.55655 72.3802 4.43655C72.6962 4.02455 73.1682 3.82184 73.6428 3.82184C74.1282 3.82184 74.6148 4.03253 74.9415 4.44853C77.1055 7.2072 76.6802 11.6992 76.3095 15.4512C74.5642 33.1379 77.9269 43.4512 75.5975 61.0725C75.2402 63.7805 74.6722 66.4885 74.8282 69.2152C75.0322 72.7725 76.4589 76.1738 76.6642 79.7312C77.0295 86.0978 73.3668 92.1605 68.4882 96.2658C63.6082 100.373 57.6055 102.859 51.7082 105.283C42.8482 108.926 33.9869 112.567 25.1269 116.21C23.9709 116.685 22.7322 117.167 21.5082 117.167Z" fill="#1B150E"/>
<path d="M17.5608 115.364C17.2061 115.364 16.8528 115.323 16.5035 115.231C15.4568 114.954 14.5928 114.243 13.8154 113.479C14.1394 113.558 14.4674 113.592 14.7954 113.592C15.2088 113.592 15.6248 113.536 16.0381 113.446C16.5035 113.976 16.9848 114.494 17.4794 114.998C17.5981 115.118 17.7181 115.238 17.8395 115.356C17.7461 115.362 17.6541 115.364 17.5608 115.364ZM69.6621 11.2045C69.9541 8.15245 70.1834 4.72449 69.0101 2.16982C69.2261 2.06849 69.4608 2.0191 69.6954 2.0191C70.1808 2.0191 70.6674 2.2298 70.9941 2.6458C71.4941 3.28446 71.8554 4.01382 72.1114 4.80582C70.9261 6.52849 70.3608 8.68712 70.6154 10.7684C70.2594 10.8698 69.9421 11.0178 69.6621 11.2045Z" fill="#1B150E"/>
<path d="M17.8394 115.357C17.7181 115.238 17.5981 115.118 17.4794 114.998C16.9847 114.494 16.5034 113.977 16.0381 113.446C16.8461 113.267 17.6474 112.95 18.4127 112.635C24.5447 110.114 30.6767 107.594 36.8087 105.074C37.4114 104.826 38.0141 104.578 38.6167 104.33C40.7434 103.457 42.8687 102.582 44.9941 101.709C50.8927 99.2846 56.8954 96.798 61.7741 92.6913C66.4247 88.778 69.9714 83.0873 69.9754 77.05C69.9754 76.7526 69.9674 76.4553 69.9501 76.1566C69.7461 72.5993 68.3194 69.1979 68.1154 65.6406C68.0967 65.3219 68.0887 65.002 68.0887 64.6833C68.0887 63.9553 68.1328 63.2299 68.2021 62.5046C68.2741 62.3606 68.3461 62.2166 68.4181 62.0726C69.6314 59.6726 70.9714 57.3113 72.1314 54.8846C72.0088 56.298 71.8501 57.7579 71.6501 59.2699C71.2927 61.9766 70.7247 64.686 70.8821 67.4126C71.0847 70.97 72.5127 74.3713 72.7167 77.9286C73.0821 84.2953 69.4194 90.3579 64.5407 94.4633C59.6621 98.5686 53.6581 101.055 47.7607 103.481C38.9007 107.122 30.0394 110.765 21.1794 114.407C20.1101 114.846 18.9728 115.291 17.8394 115.357ZM69.7021 41.094C69.5034 32.442 68.6047 24.5846 69.3887 14.2846C69.3874 14.294 69.3847 14.3046 69.3834 14.3153C69.4434 13.5166 69.5141 12.706 69.5954 11.8766C69.6181 11.6553 69.6394 11.4299 69.6621 11.2046C69.9421 11.018 70.2594 10.8699 70.6154 10.7686C70.3607 8.68728 70.9261 6.52865 72.1114 4.80598C72.9647 7.44065 72.6474 10.7633 72.3621 13.6486C71.2994 24.422 72.1314 32.4593 72.4181 41.0793C72.1941 40.9793 71.9541 40.9033 71.6941 40.854C71.4821 40.8126 71.2728 40.794 71.0688 40.794C70.5874 40.794 70.1314 40.902 69.7021 41.094Z" fill="#1B150E"/>
<path d="M64.9682 76.512C64.2615 71.5333 66.1495 66.5613 68.4175 62.0733C70.6855 57.5866 73.3988 53.2333 74.5428 48.336C75.2241 45.4226 74.6335 41.416 71.6935 40.8546C68.9575 40.332 66.9335 43.3213 65.9521 45.9293C62.4895 55.116 61.7601 65.3133 63.8815 74.8986L64.9682 76.512Z" fill="#E3C19B"/>
<path d="M43.722 73.7151C48.5713 72.2525 50.9833 66.9165 52.514 62.0885C58.0433 44.6445 63.0327 33.5458 61.0393 15.3551C60.6953 12.2231 60.8727 8.06176 63.902 7.19376C63.6273 4.96043 64.298 2.64043 65.666 0.86042C66.3047 0.0297546 67.5793 0.0497665 68.2273 0.873772C70.3913 3.63244 69.966 8.12444 69.5953 11.8764C67.8513 29.5631 71.2126 39.8764 68.8833 57.4978C68.5246 60.2058 67.9593 62.9138 68.1153 65.6404C68.3193 69.1978 69.746 72.5991 69.95 76.1565C70.3166 82.5231 66.6526 88.5858 61.774 92.6911C56.8953 96.7978 50.8927 99.2844 44.994 101.708C36.134 105.351 27.2726 108.992 18.4126 112.635C16.9206 113.248 15.2967 113.871 13.7367 113.459C12.562 113.147 11.618 112.29 10.7647 111.422C5.38066 105.94 1.658 98.8458 0.204667 91.3004C-0.00600007 90.2031 -0.160672 89.0231 0.299328 88.0058C0.837995 86.8111 2.00999 85.9311 3.26466 85.5511C10.486 83.3605 16.8086 82.4644 24.1766 80.6631C32.2313 78.6924 36.882 77.7831 44.0553 73.6218L43.722 73.7151Z" fill="#FCBF49"/>
<path d="M69.9496 76.1567C69.7456 72.5993 68.319 69.198 68.115 65.6406C67.959 62.914 68.5243 60.206 68.883 57.498C71.2123 39.8766 67.851 29.5633 69.595 11.8767C69.9656 8.12466 70.391 3.63265 68.227 0.873985C67.579 0.0499878 66.3043 0.0299683 65.6657 0.860641C64.2977 2.64064 63.627 4.96064 63.9017 7.19397C60.8723 8.06197 60.695 12.2233 61.039 15.3553C63.0323 33.546 58.043 44.6447 52.5136 62.0887C50.983 66.9167 48.571 72.2527 43.7216 73.7153L44.055 73.622C36.8816 77.7833 32.231 78.6926 24.1763 80.6633C21.931 81.2113 19.7883 81.674 17.6816 82.118C19.347 87.2273 22.495 91.9513 25.7176 96.1833C28.355 99.6473 31.2283 102.917 34.095 106.189C37.7283 104.695 41.3603 103.202 44.9937 101.709C50.8923 99.2846 56.895 96.798 61.7736 92.6913C66.6523 88.586 70.3163 82.5233 69.9496 76.1567Z" fill="#F77F00"/>
<path d="M69.95 76.1567C69.746 72.5994 68.3193 69.198 68.1153 65.6407C67.9593 62.914 68.5247 60.206 68.8833 57.498C71.2127 39.8767 67.8513 29.5634 69.5953 11.8767C69.99 7.88336 70.4473 3.04871 67.774 0.362045C67.302 -0.11129 66.5246 -0.131317 66.078 0.366013C64.65 1.95535 63.834 4.08868 63.8406 6.22467C63.842 6.71934 63.506 7.11803 63.0353 7.2767C60.1633 8.23802 60.474 16.1087 60.5687 19.7407C60.71 25.2087 58.754 36.438 57.3727 42.3594C55.5727 50.086 55.1713 50.594 51.8367 61.11C50.306 65.938 49.5873 67.714 45.3806 70.8567C45.3806 70.8567 43.0633 72.398 40.6207 73.7727C35.4793 76.6634 32.638 76.4727 24.9847 79.9554L22.6607 80.5607C21.958 80.7327 23.078 81.586 23.354 82.2554C25.5473 87.57 28.842 92.61 31.6687 97.2207C33.2073 99.7314 34.9807 102.077 36.9927 104.199C37.322 104.547 37.8366 104.65 38.2793 104.469C40.518 103.549 42.7553 102.629 44.994 101.709C50.8927 99.2847 56.8953 96.798 61.774 92.6914C66.6526 88.586 70.3167 82.5234 69.95 76.1567Z" fill="#E6C7A4"/>
<path d="M37.8313 104.557C37.5206 104.557 37.2153 104.434 36.9926 104.199C34.9806 102.077 33.2073 99.7315 31.6687 97.2208C31.4807 96.9142 31.2913 96.6061 31.0993 96.2968C28.4087 91.9395 25.402 87.2182 23.3553 82.2555C23.078 81.5862 21.958 80.7328 22.6606 80.5608L22.7833 80.5288C22.9006 80.4982 23.094 80.4488 23.3166 80.3902C25.0193 83.1928 26.966 85.8262 29.2687 88.1582C32.238 91.1635 35.8166 93.5901 39.8886 94.8115C42.0473 95.4595 44.222 95.7582 46.3953 95.7582C49.0566 95.7582 51.714 95.3101 54.3326 94.5101C56.9726 93.7035 59.5566 92.6675 61.9886 91.3595C63.1193 90.7528 64.2206 90.0768 65.1793 89.2488C64.15 90.5021 63.0006 91.6595 61.774 92.6915C56.8953 96.7982 50.8926 99.2848 44.994 101.709C42.7553 102.629 40.518 103.549 38.2793 104.469C38.1353 104.529 37.9833 104.557 37.8313 104.557Z" fill="#0CAD90"/>
</svg>
