<svg width="150" height="29" viewBox="0 0 150 29" fill="none" xmlns="http://www.w3.org/2000/svg">
<g clip-path="url(#clip0_13_6)">
<path fill-rule="evenodd" clip-rule="evenodd" d="M108.344 19.643H106.797V20.2969H112.087V19.643H110.577V14.3786C110.577 12.2516 112.047 9.60288 113.979 9.60288C115.107 9.60288 115.761 9.91147 115.761 11.9797V19.643H114.291V20.2969H119.508V19.643H117.98V11.6271C117.98 9.01877 115.628 8.79468 114.607 8.79468C112.539 8.79468 111.433 10.0107 110.643 11.7961H110.577V8.79468C110.057 8.91092 109.529 8.98585 108.998 9.01877C108.468 9.06811 107.935 9.08773 107.403 9.07755H106.815V9.72779H108.362V19.6467" fill="white"/>
<path fill-rule="evenodd" clip-rule="evenodd" d="M127.715 12.3363C127.864 13.1577 127.929 13.9924 127.906 14.827C127.906 17.766 127.538 18.3427 126.462 19.3052C125.904 19.7503 125.223 20.0155 124.511 20.0657C122.182 20.0657 121.646 18.6219 121.646 14.2613C121.646 12.2518 121.73 9.35695 124.364 9.35695C126.998 9.35695 127.597 11.9285 127.715 12.3363ZM130.003 19.6432V0.540161C128.955 0.722386 127.893 0.807242 126.829 0.793644H125.904V1.42551H127.799V10.9476H127.737C127.429 10.3075 126.947 9.76654 126.347 9.38604C125.747 9.00555 125.053 8.80075 124.342 8.79488C120.97 8.79488 119.063 11.5134 119.063 14.6727C119.063 17.9019 121.19 20.6498 124.059 20.6498C124.806 20.6853 125.547 20.5131 126.202 20.1526C126.856 19.792 127.397 19.2571 127.766 18.6072H127.821V20.5102C129.06 20.3341 130.31 20.2579 131.561 20.2824V19.6432H130.003Z" fill="white"/>
<path fill-rule="evenodd" clip-rule="evenodd" d="M137.832 20.2969V19.643H136.157V8.79468C135.114 9.01616 134.048 9.11114 132.983 9.07755H132.057V9.73146H133.953V19.6503H132.057V20.3043H137.832" fill="white"/>
<path fill-rule="evenodd" clip-rule="evenodd" d="M148.886 18.3425C148.739 18.8238 148.464 19.6136 147.894 19.6136C147.325 19.6136 147.314 19.1617 147.314 18.3131V11.5683C147.314 10.4368 147.314 8.79468 143.467 8.79468C140.095 8.79468 138.927 10.4956 138.927 11.5132C138.927 12.3067 139.357 12.8724 140.128 12.8724C140.285 12.8808 140.441 12.8555 140.588 12.7984C140.734 12.7413 140.866 12.6537 140.976 12.5414C141.085 12.429 141.169 12.2946 141.223 12.1471C141.276 11.9995 141.297 11.8423 141.285 11.6858C141.285 10.7454 140.433 10.6058 140.433 10.378C140.433 9.5588 142.446 9.36042 143.067 9.36042C144.059 9.36042 145.11 9.75718 145.11 11.087V13.7798C140.771 13.7798 138.082 15.2493 137.997 17.8907C137.997 19.9847 139.526 20.6643 141.304 20.6643C142.027 20.6807 142.745 20.5336 143.404 20.234C144.063 19.9344 144.646 19.4901 145.11 18.934C145.312 19.9847 145.91 20.6643 146.946 20.6643C147.571 20.6656 148.172 20.4243 148.622 19.9912C149.073 19.558 149.337 18.9669 149.36 18.3425H148.875M145.11 17.009C145.11 18.1993 144.709 18.5115 144.489 18.7393C144.196 19.0184 143.85 19.235 143.471 19.3759C143.092 19.5167 142.688 19.5789 142.284 19.5585C140.991 19.5585 140.117 18.7099 140.117 17.3212C140.117 14.7166 143.254 14.4044 145.098 14.3823L145.11 17.009Z" fill="white"/>
<path fill-rule="evenodd" clip-rule="evenodd" d="M7.61917 19.643H5.18354V2.02415H7.61917V1.37024H0V2.02415H2.43564V19.643H0V20.2969H7.61917V19.643Z" fill="white"/>
<path fill-rule="evenodd" clip-rule="evenodd" d="M9.73888 19.643H8.1886V20.2969H13.4787V19.643H11.9504V14.3786C11.9504 12.2516 13.4199 9.60288 15.3559 9.60288C16.4837 9.60288 17.134 9.91147 17.134 11.9797V19.643H15.6645V20.2969H20.8811V19.643H19.3492V11.6271C19.3492 9.01877 16.998 8.79468 15.9768 8.79468C13.9011 8.79468 12.8027 10.0107 12.0019 11.7961H11.9504V8.79468C11.4269 8.91092 10.895 8.98585 10.3597 9.01877C9.83471 9.06825 9.3073 9.08787 8.78006 9.07755H8.1886V9.72779H9.73888V19.6467" fill="white"/>
<path fill-rule="evenodd" clip-rule="evenodd" d="M30.3188 16.785C29.6355 18.8239 28.0521 20.1574 26.41 20.0692C24.9406 19.9848 24.0589 19.3896 23.6254 18.4528C23.227 17.3672 23.0278 16.2185 23.0376 15.062C23.0376 11.3516 23.7429 9.36787 26.4615 9.36787C27.0823 9.36787 28.875 9.68013 28.875 10.4443C28.875 10.7528 27.9677 10.8961 27.9677 11.9982C27.9564 12.1759 27.983 12.354 28.0458 12.5207C28.1086 12.6873 28.2062 12.8387 28.3319 12.9648C28.4577 13.0909 28.6088 13.1889 28.7753 13.2521C28.9417 13.3154 29.1198 13.3425 29.2975 13.3317C30.0984 13.3317 30.5723 12.597 30.5723 11.8329C30.5723 9.65074 27.9677 8.80212 26.1235 8.80212C24.5107 8.80212 20.455 10.0181 20.455 15.0473C20.455 17.0017 21.7922 20.657 26.1786 20.657C29.1175 20.5431 30.2674 18.7871 30.9103 16.7776H30.3188" fill="white"/>
<path fill-rule="evenodd" clip-rule="evenodd" d="M34.7454 8.79468C33.7025 9.01536 32.6369 9.11032 31.5714 9.07755H30.686V9.72779H32.6147V19.6467H30.686V20.3006H37.0121V19.643H34.8299V14.2611C34.8431 13.2023 35.0837 12.1587 35.5353 11.2009C35.8513 10.4659 36.4248 9.87154 37.148 9.52941C37.2325 9.52941 37.4015 9.52941 37.4015 9.70207C37.3559 9.89727 37.3203 10.0947 37.295 10.2935C37.3174 10.5812 37.44 10.8519 37.6413 11.0586C37.8427 11.2653 38.1101 11.395 38.3971 11.425C38.9995 11.425 39.7379 11.087 39.7379 10.378C39.7379 9.30164 38.9665 8.79468 38.0076 8.79468C36.45 8.79468 35.3222 10.1796 34.8042 11.4581H34.7528V8.79468" fill="white"/>
<path fill-rule="evenodd" clip-rule="evenodd" d="M49.3299 16.7849C48.9295 18.6511 47.0339 20.0655 45.4211 20.0655C42.3316 20.0655 41.9642 17.8025 41.9642 14.9995V13.8349H49.9838C49.9508 10.7454 47.7796 8.79468 44.8848 8.79468C41.5124 8.79468 39.3082 11.8512 39.3082 15.1979C39.3082 18.3425 42.0891 20.6643 44.9766 20.6643C47.4637 20.6643 49.385 19.4189 49.9618 16.7849H49.3409M41.9936 13.012C41.999 12.3797 42.0942 11.7513 42.2765 11.1458C42.3279 10.9474 43.0994 9.35675 44.7966 9.35675C46.2073 9.35675 47.3976 10.0107 47.3976 12.0495V13.012H41.9936Z" fill="white"/>
<path fill-rule="evenodd" clip-rule="evenodd" d="M59.3628 12.3363C59.5163 13.1573 59.584 13.992 59.5649 14.827C59.5649 17.766 59.1975 18.3427 58.1211 19.3052C57.5617 19.7483 56.8821 20.0132 56.1704 20.0657C53.8413 20.0657 53.3049 18.6219 53.3049 14.2613C53.3049 12.2518 53.3894 9.35695 56.0234 9.35695C58.6575 9.35695 59.2452 11.9285 59.3628 12.3363ZM61.6588 19.6432V0.540161C60.6121 0.722015 59.5508 0.806869 58.4885 0.793644H57.5517V1.42551H59.4473V10.9476H59.3959C59.0844 10.3077 58.6008 9.76727 57.9992 9.387C57.3977 9.00672 56.702 8.80167 55.9904 8.79488C52.618 8.79488 50.7224 11.5134 50.7224 14.6727C50.7224 17.9019 52.8494 20.6498 55.7149 20.6498C56.4599 20.6839 57.1999 20.5111 57.8528 20.1506C58.5057 19.7901 59.0462 19.2559 59.4142 18.6072H59.4804V20.5102C60.7188 20.3334 61.9694 20.2572 63.2201 20.2824V19.6432H61.6588Z" fill="white"/>
<path fill-rule="evenodd" clip-rule="evenodd" d="M69.491 20.2969V19.643H67.8158V8.79468C66.7729 9.01518 65.7073 9.11015 64.6418 9.07755H63.705V9.73146H65.6006V19.6503H63.705V20.3043H69.491" fill="white"/>
<path fill-rule="evenodd" clip-rule="evenodd" d="M73.7376 0.521606C72.6896 0.70354 71.6271 0.788394 70.5636 0.775089H69.9133V1.42533H71.5224V19.6136H69.9133V20.2969C71.166 20.2675 72.3784 20.4365 73.6201 20.5247V18.5666H73.6862C74.3585 19.6981 75.6112 20.6643 77.0255 20.6643C80.06 20.6643 82.4626 18.2287 82.4626 14.7166C82.4626 12.1451 80.9343 8.79469 76.9925 8.79469C76.3358 8.83158 75.6987 9.03205 75.1393 9.37787C74.5798 9.72369 74.1156 10.2039 73.789 10.7748H73.7376V0.521606ZM73.789 12.123C73.8515 11.2707 75.1593 9.34207 77.0255 9.34207C79.7771 9.34207 79.891 12.4647 79.891 14.5881C79.891 16.8547 79.8616 20.0508 77.0255 20.0508C76.1733 20.0508 73.6531 19.5695 73.6531 16.0098C73.6531 15.2971 73.7156 12.8908 73.789 12.1267" fill="white"/>
<path fill-rule="evenodd" clip-rule="evenodd" d="M88.5352 20.2971V19.6432H86.3567V0.540161C85.309 0.724193 84.2463 0.809063 83.1827 0.793644H81.9704V1.42919H84.1268V19.6432H81.9557V20.2971H88.5352Z" fill="white"/>
<path fill-rule="evenodd" clip-rule="evenodd" d="M97.9434 16.7849C97.543 18.6511 95.6474 20.0655 94.0346 20.0655C90.9451 20.0655 90.5777 17.8025 90.5777 14.9995V13.8349H98.5973C98.5753 10.7454 96.3931 8.79468 93.4983 8.79468C90.1259 8.79468 87.9106 11.8512 87.9106 15.1979C87.9106 18.3425 90.6953 20.6643 93.5828 20.6643C96.0772 20.6643 97.9912 19.4189 98.5753 16.7849H97.9434ZM90.5961 13.012C90.6015 12.3797 90.6967 11.7513 90.879 11.1458C90.9304 10.9474 91.6908 9.35675 93.3991 9.35675C94.8098 9.35675 96.0111 10.0107 96.0111 12.0495V13.012H90.5961Z" fill="white"/>
<path fill-rule="evenodd" clip-rule="evenodd" d="M7.61917 19.643H5.18354V2.02415H7.61917V1.37024H0V2.02415H2.43564V19.643H0V20.2969H7.61917V19.643Z" fill="white"/>
<path fill-rule="evenodd" clip-rule="evenodd" d="M9.73888 19.643H8.1886V20.2969H13.4787V19.643H11.9504V14.3786C11.9504 12.2516 13.4199 9.60288 15.3559 9.60288C16.4837 9.60288 17.134 9.91147 17.134 11.9797V19.643H15.6645V20.2969H20.8811V19.643H19.3492V11.6271C19.3492 9.01877 16.998 8.79468 15.9768 8.79468C13.9011 8.79468 12.8027 10.0107 12.0019 11.7961H11.9504V8.79468C11.4269 8.91092 10.895 8.98585 10.3597 9.01877C9.83471 9.06825 9.3073 9.08787 8.78006 9.07755H8.1886V9.72779H9.73888V19.6467" fill="white"/>
<path fill-rule="evenodd" clip-rule="evenodd" d="M30.3188 16.785C29.6355 18.8239 28.0521 20.1574 26.41 20.0692C24.9406 19.9848 24.0589 19.3896 23.6254 18.4528C23.227 17.3672 23.0278 16.2185 23.0376 15.062C23.0376 11.3516 23.7429 9.36787 26.4615 9.36787C27.0823 9.36787 28.875 9.68013 28.875 10.4443C28.875 10.7528 27.9677 10.8961 27.9677 11.9982C27.9564 12.1759 27.983 12.354 28.0458 12.5207C28.1086 12.6873 28.2062 12.8387 28.3319 12.9648C28.4577 13.0909 28.6088 13.1889 28.7753 13.2521C28.9417 13.3154 29.1198 13.3425 29.2975 13.3317C30.0984 13.3317 30.5723 12.597 30.5723 11.8329C30.5723 9.65074 27.9677 8.80212 26.1235 8.80212C24.5107 8.80212 20.455 10.0181 20.455 15.0473C20.455 17.0017 21.7922 20.657 26.1786 20.657C29.1175 20.5431 30.2674 18.7871 30.9103 16.7776H30.3188" fill="white"/>
<path fill-rule="evenodd" clip-rule="evenodd" d="M34.7454 8.79468C33.7025 9.01536 32.6369 9.11032 31.5714 9.07755H30.686V9.72779H32.6147V19.6467H30.686V20.3006H37.0121V19.643H34.8299V14.2611C34.8431 13.2023 35.0837 12.1587 35.5353 11.2009C35.8513 10.4659 36.4248 9.87154 37.148 9.52941C37.2325 9.52941 37.4015 9.52941 37.4015 9.70207C37.3559 9.89727 37.3203 10.0947 37.295 10.2935C37.3174 10.5812 37.44 10.8519 37.6413 11.0586C37.8427 11.2653 38.1101 11.395 38.3971 11.425C38.9995 11.425 39.7379 11.087 39.7379 10.378C39.7379 9.30164 38.9665 8.79468 38.0076 8.79468C36.45 8.79468 35.3222 10.1796 34.8042 11.4581H34.7528V8.79468" fill="white"/>
<path fill-rule="evenodd" clip-rule="evenodd" d="M49.3299 16.7849C48.9295 18.6511 47.0339 20.0655 45.4211 20.0655C42.3316 20.0655 41.9642 17.8025 41.9642 14.9995V13.8349H49.9838C49.9508 10.7454 47.7796 8.79468 44.8848 8.79468C41.5124 8.79468 39.3082 11.8512 39.3082 15.1979C39.3082 18.3425 42.0891 20.6643 44.9766 20.6643C47.4637 20.6643 49.385 19.4189 49.9618 16.7849H49.3409M41.9936 13.012C41.999 12.3797 42.0942 11.7513 42.2765 11.1458C42.3279 10.9474 43.0994 9.35675 44.7966 9.35675C46.2073 9.35675 47.3976 10.0107 47.3976 12.0495V13.012H41.9936Z" fill="white"/>
<path fill-rule="evenodd" clip-rule="evenodd" d="M59.3628 12.3363C59.5163 13.1573 59.584 13.992 59.5649 14.827C59.5649 17.766 59.1975 18.3427 58.1211 19.3052C57.5617 19.7483 56.8821 20.0132 56.1704 20.0657C53.8413 20.0657 53.3049 18.6219 53.3049 14.2613C53.3049 12.2518 53.3894 9.35695 56.0234 9.35695C58.6575 9.35695 59.2452 11.9285 59.3628 12.3363ZM61.6588 19.6432V0.540161C60.6121 0.722015 59.5508 0.806869 58.4885 0.793644H57.5517V1.42551H59.4473V10.9476H59.3959C59.0844 10.3077 58.6008 9.76727 57.9992 9.387C57.3977 9.00672 56.702 8.80167 55.9904 8.79488C52.618 8.79488 50.7224 11.5134 50.7224 14.6727C50.7224 17.9019 52.8494 20.6498 55.7149 20.6498C56.4599 20.6839 57.1999 20.5111 57.8528 20.1506C58.5057 19.7901 59.0462 19.2559 59.4142 18.6072H59.4804V20.5102C60.7188 20.3334 61.9694 20.2572 63.2201 20.2824V19.6432H61.6588Z" fill="white"/>
<path fill-rule="evenodd" clip-rule="evenodd" d="M69.491 20.2969V19.643H67.8158V8.79468C66.7729 9.01518 65.7073 9.11015 64.6418 9.07755H63.705V9.73146H65.6006V19.6503H63.705V20.3043H69.491" fill="white"/>
<path fill-rule="evenodd" clip-rule="evenodd" d="M73.7376 0.521606C72.6896 0.70354 71.6271 0.788394 70.5636 0.775089H69.9133V1.42533H71.5224V19.6136H69.9133V20.2969C71.166 20.2675 72.3784 20.4365 73.6201 20.5247V18.5666H73.6862C74.3585 19.6981 75.6112 20.6643 77.0255 20.6643C80.06 20.6643 82.4626 18.2287 82.4626 14.7166C82.4626 12.1451 80.9343 8.79469 76.9925 8.79469C76.3358 8.83158 75.6987 9.03205 75.1393 9.37787C74.5798 9.72369 74.1156 10.2039 73.789 10.7748H73.7376V0.521606ZM73.789 12.123C73.8515 11.2707 75.1593 9.34207 77.0255 9.34207C79.7771 9.34207 79.891 12.4647 79.891 14.5881C79.891 16.8547 79.8616 20.0508 77.0255 20.0508C76.1733 20.0508 73.6531 19.5695 73.6531 16.0098C73.6531 15.2971 73.7156 12.8908 73.789 12.1267" fill="white"/>
<path fill-rule="evenodd" clip-rule="evenodd" d="M88.5352 20.2971V19.6432H86.3567V0.540161C85.309 0.724193 84.2463 0.809063 83.1827 0.793644H81.9704V1.42919H84.1268V19.6432H81.9557V20.2971H88.5352Z" fill="white"/>
<path fill-rule="evenodd" clip-rule="evenodd" d="M97.9434 16.7849C97.543 18.6511 95.6474 20.0655 94.0346 20.0655C90.9451 20.0655 90.5777 17.8025 90.5777 14.9995V13.8349H98.5973C98.5753 10.7454 96.3931 8.79468 93.4983 8.79468C90.1259 8.79468 87.9106 11.8512 87.9106 15.1979C87.9106 18.3425 90.6953 20.6643 93.5828 20.6643C96.0772 20.6643 97.9912 19.4189 98.5753 16.7849H97.9434ZM90.5961 13.012C90.6015 12.3797 90.6967 11.7513 90.879 11.1458C90.9304 10.9474 91.6908 9.35675 93.3991 9.35675C94.8098 9.35675 96.0111 10.0107 96.0111 12.0495V13.012H90.5961Z" fill="white"/>
<path fill-rule="evenodd" clip-rule="evenodd" d="M104.31 28.0779C105.816 28.0779 107.175 26.9978 107.175 25.3593C107.175 23.8531 105.669 22.729 104.31 22.729C103.615 22.7426 102.952 23.0215 102.456 23.5085C101.96 23.9955 101.669 24.6538 101.643 25.3483C101.626 25.7056 101.682 26.0625 101.809 26.3968C101.937 26.7311 102.132 27.0354 102.382 27.2907C102.633 27.546 102.933 27.7468 103.265 27.8803C103.597 28.0139 103.953 28.0774 104.31 28.0668" fill="#EC2227"/>
<path fill-rule="evenodd" clip-rule="evenodd" d="M104.806 20.3153C105.015 11.4986 106.448 3.96388 106.448 2.86913C106.448 1.4364 105.801 0 104.405 0C103.009 0 102.359 1.4364 102.359 2.86913C102.359 3.97123 103.792 11.5096 104.012 20.3153H104.806Z" fill="white"/>
</g>
<defs>
<clipPath id="clip0_13_6">
<rect width="149.371" height="28.0778" fill="white"/>
</clipPath>
</defs>
</svg>
