<svg width="77" height="118" viewBox="0 0 77 118" fill="none" xmlns="http://www.w3.org/2000/svg">
<path d="M55.1813 117.167C53.956 117.167 52.7186 116.685 51.5626 116.21C42.7026 112.567 33.8413 108.926 24.9813 105.283C19.084 102.859 13.08 100.373 8.2013 96.2658C3.32131 92.1605 -0.34137 86.0978 0.0252962 79.7312C0.229296 76.1738 1.65596 72.7725 1.85996 69.2152C2.0173 66.4885 1.4493 63.7805 1.09196 61.0725C-1.2387 43.4512 2.12395 33.1378 0.378616 15.4512C0.00928312 11.6992 -0.416048 7.20718 1.74795 4.44852C2.07462 4.03252 2.56128 3.82182 3.04528 3.82182C3.52128 3.82182 3.99331 4.02454 4.30931 4.43654C4.40131 4.55654 4.49065 4.67921 4.57731 4.80587C3.72531 7.44054 4.04263 10.7632 4.32663 13.6485C5.3893 24.4219 4.55731 32.4592 4.27198 41.0792C1.96131 42.1139 1.52528 45.6792 2.14662 48.3352C2.67862 50.6138 3.55063 52.7739 4.55863 54.8845C4.6813 56.2979 4.83998 57.7578 5.03864 59.2698C5.39731 61.9765 5.96398 64.6859 5.80798 67.4125C5.60264 70.9699 4.17731 74.3712 3.97331 77.9285C3.60531 84.2952 7.26929 90.3578 12.148 94.4632C17.028 98.5685 23.0306 101.055 28.928 103.481C37.7893 107.122 46.6493 110.765 55.5106 114.407C56.5786 114.846 57.7173 115.291 58.8493 115.357C58.092 116.093 57.252 116.766 56.2386 117.034C55.888 117.126 55.5346 117.167 55.1813 117.167Z" fill="#1B150E"/>
<path d="M59.1278 115.364C59.0358 115.364 58.9425 115.362 58.8491 115.356C58.9718 115.238 59.0918 115.118 59.2091 114.998C59.7052 114.494 60.1851 113.976 60.6518 113.446C61.0651 113.536 61.4798 113.592 61.8945 113.592C62.2225 113.592 62.5491 113.558 62.8745 113.478C62.0958 114.243 61.2318 114.954 60.1865 115.231C59.8358 115.323 59.4825 115.364 59.1278 115.364ZM7.0278 11.2045C6.74647 11.0178 6.43048 10.8698 6.07448 10.7684C6.32915 8.68712 5.76382 6.52849 4.57715 4.80582C4.83315 4.01382 5.1958 3.28446 5.6958 2.6458C6.02247 2.2298 6.50913 2.0191 6.99313 2.0191C7.22913 2.0191 7.46378 2.06849 7.67845 2.16982C7.31578 2.95915 7.08779 3.83244 6.95313 4.75243C6.95313 4.7591 6.95179 4.76446 6.95046 4.77112C6.95046 4.77245 6.95046 4.77379 6.95046 4.77379C6.65446 6.82446 6.82647 9.10445 7.0278 11.2045Z" fill="#1B150E"/>
<path d="M58.8487 115.357C57.7167 115.291 56.5781 114.846 55.5101 114.407C46.6487 110.765 37.7887 107.122 28.9274 103.481C23.0301 101.055 17.0274 98.5686 12.1474 94.4633C7.26871 90.3579 3.60473 84.2953 3.97273 77.9286C4.17673 74.3713 5.60207 70.97 5.8074 67.4126C5.9634 64.686 5.39673 61.9766 5.03806 59.2699C4.8394 57.7579 4.68072 56.298 4.55805 54.8846C5.71672 57.3113 7.05673 59.6726 8.27006 62.0726C8.34339 62.2166 8.41538 62.3606 8.48604 62.5046C8.55671 63.2299 8.60073 63.9566 8.60073 64.6833C8.60073 65.002 8.59273 65.3219 8.57406 65.6406C8.37006 69.1979 6.9434 72.5993 6.7394 76.1566C6.72206 76.4553 6.71404 76.7526 6.71404 77.05C6.71804 82.1393 9.23671 86.9806 12.814 90.7206C13.4807 91.418 14.1834 92.0766 14.9154 92.6913C19.794 96.798 25.7967 99.2846 31.6954 101.709C33.9327 102.629 36.1714 103.549 38.4087 104.469C38.4181 104.473 38.4287 104.477 38.4381 104.481C45.0514 107.199 51.6621 109.917 58.2754 112.635C59.0407 112.95 59.842 113.267 60.6514 113.446C60.1847 113.977 59.7047 114.494 59.2087 114.998C59.0914 115.118 58.9714 115.238 58.8487 115.357ZM6.98738 41.094C6.55805 40.902 6.10071 40.794 5.61938 40.794C5.41538 40.794 5.20739 40.8126 4.99405 40.854C4.73539 40.9033 4.49406 40.9793 4.2714 41.0793C4.55673 32.4593 5.38872 24.422 4.32605 13.6486C4.04205 10.7633 3.72473 7.44065 4.57673 4.80598C5.7634 6.52865 6.32873 8.68728 6.07407 10.7686C6.43007 10.8699 6.74605 11.018 7.02739 11.2046C7.04872 11.4299 7.07138 11.6553 7.09272 11.8766C7.17538 12.7046 7.24606 13.518 7.30606 14.3153C7.30473 14.3046 7.30206 14.294 7.30072 14.2846C8.02339 23.7926 7.31273 31.2193 7.0434 39.1113C7.02207 39.7673 7.00205 40.4286 6.98738 41.094Z" fill="#1B150E"/>
<path d="M11.7199 76.512C12.4279 71.5333 10.5372 66.5613 8.27057 62.0733C6.00257 57.5866 3.29054 53.2333 2.14654 48.336C1.46521 45.4226 2.05589 41.416 4.99456 40.8546C7.73189 40.332 9.75457 43.3213 10.7372 45.9293C14.1999 55.116 14.9279 65.3133 12.8079 74.8986L11.7199 76.512Z" fill="#E3C19B"/>
<path d="M32.9673 73.7151C28.118 72.2525 25.706 66.9165 24.1753 62.0885C18.646 44.6445 13.6553 33.5458 15.65 15.3551C15.9913 12.2231 15.8153 8.06176 12.7873 7.19376C13.0606 4.96043 12.3913 2.64043 11.0233 0.860428C10.3833 0.0297623 9.10865 0.0497818 8.46198 0.873779C6.29665 3.63245 6.72331 8.12445 7.09264 11.8764C8.83798 29.5631 5.47532 39.8764 7.80599 57.4978C8.16332 60.2058 8.72999 62.9138 8.57399 65.6404C8.36999 69.1978 6.94332 72.5991 6.73932 76.1565C6.37132 82.5231 10.0366 88.5858 14.9153 92.6911C19.794 96.7978 25.7966 99.2844 31.6953 101.708C40.5553 105.351 49.4153 108.992 58.2753 112.635C59.7673 113.248 61.3926 113.871 62.9513 113.459C64.1273 113.147 65.0713 112.29 65.9246 111.422C71.3086 105.94 75.0313 98.8458 76.4833 91.3004C76.6953 90.2031 76.85 89.0231 76.39 88.0058C75.85 86.8111 74.678 85.9311 73.4246 85.5511C66.202 83.3605 59.878 82.4644 52.5126 80.6631C44.4566 78.6924 39.8073 77.7831 32.634 73.6218L32.9673 73.7151Z" fill="#FCBF49"/>
<path d="M6.73932 76.1567C6.94332 72.5993 8.36999 69.198 8.57399 65.6406C8.72999 62.914 8.16332 60.206 7.80599 57.498C5.47532 39.8766 8.83798 29.5633 7.09264 11.8767C6.72331 8.12466 6.29665 3.63265 8.46198 0.873985C9.10865 0.0499878 10.3833 0.0299683 11.0233 0.860641C12.3913 2.64064 13.0606 4.96064 12.7873 7.19397C15.8153 8.06197 15.9913 12.2233 15.65 15.3553C13.6553 33.546 18.646 44.6447 24.1753 62.0887C25.706 66.9167 28.118 72.2527 32.9673 73.7153L32.634 73.622C39.8073 77.7833 44.4566 78.6926 52.5126 80.6633C54.758 81.2113 56.9007 81.674 59.0073 82.118C57.3407 87.2273 54.194 91.9513 50.9713 96.1833C48.3327 99.6473 45.4606 102.917 42.5926 106.189C38.9606 104.695 35.3273 103.202 31.6953 101.709C25.7966 99.2846 19.794 96.798 14.9153 92.6913C10.0366 88.586 6.37132 82.5233 6.73932 76.1567Z" fill="#F77F00"/>
<path d="M6.73932 76.1567C6.94332 72.5994 8.36999 69.198 8.57399 65.6407C8.72999 62.914 8.16332 60.206 7.80599 57.498C5.47532 39.8767 8.83798 29.5634 7.09264 11.8767C6.69931 7.88336 6.24197 3.04871 8.9153 0.362045C9.38597 -0.11129 10.1633 -0.131317 10.6113 0.366013C12.038 1.95535 12.854 4.08868 12.8473 6.22467C12.846 6.71934 13.1833 7.11803 13.6526 7.2767C16.526 8.23802 16.2126 16.1087 16.1193 19.7407C15.9793 25.2087 17.934 36.438 19.3153 42.3594C21.1166 50.086 21.518 50.594 24.8513 61.11C26.382 65.938 27.1007 67.714 31.3073 70.8567C31.3073 70.8567 33.626 72.398 36.0687 73.7727C41.2086 76.6634 44.05 76.4727 51.7033 79.9554L54.0286 80.5607C54.7313 80.7327 53.61 81.586 53.334 82.2554C51.142 87.57 47.846 92.61 45.0206 97.2207C43.4806 99.7314 41.7073 102.077 39.6953 104.199C39.366 104.547 38.8513 104.65 38.4087 104.469C36.1713 103.549 33.9326 102.629 31.6953 101.709C25.7966 99.2847 19.794 96.798 14.9153 92.6914C10.0366 88.586 6.37132 82.5234 6.73932 76.1567Z" fill="#E6C7A4"/>
</svg>
