<svg width="122" height="111" viewBox="0 0 122 111" fill="none" xmlns="http://www.w3.org/2000/svg">
<path d="M60.5298 0.41692C61.4186 0.41692 62.1419 7.19007 62.1419 15.5478C62.1419 23.9055 61.4186 30.6849 60.5298 30.6849C59.641 30.6849 58.9219 23.9055 58.9219 15.5478C58.9219 7.19007 59.641 0.41692 60.5298 0.41692Z" fill="#F77F00"/>
<path d="M27.595 36.1227C26.9671 36.7506 23.8658 34.6717 20.6691 31.475C17.4745 28.2804 15.3936 25.1792 16.0236 24.5492C16.6515 23.9213 19.7527 26.0022 22.9473 29.1989C26.144 32.3935 28.225 35.4927 27.595 36.1227Z" fill="#F77F00"/>
<path d="M15.133 69.9492C15.133 70.838 11.7453 71.5613 7.56858 71.5613C3.38973 71.5613 0 70.838 0 69.9492C0 69.0604 3.38973 68.3392 7.56858 68.3392C11.7453 68.3392 15.133 69.0604 15.133 69.9492Z" fill="#F77F00"/>
<path d="M8.01261 110.008C7.38472 109.378 9.26203 106.476 12.2127 103.528C15.1633 100.577 18.0673 98.6957 18.6952 99.3257C19.3231 99.9536 17.4415 102.855 14.4909 105.806C11.5424 108.755 8.6405 110.636 8.01261 110.008Z" fill="#F77F00"/>
<path d="M94.4058 36.1237C93.7779 35.4958 95.8567 32.3945 99.0513 29.1999C102.248 26.0032 105.349 23.9223 105.979 24.5524C106.607 25.1802 104.526 28.2814 101.332 31.476C98.1349 34.6727 95.0358 36.7537 94.4058 36.1237Z" fill="#F77F00"/>
<path d="M106.867 69.9513C106.867 69.0604 110.255 68.3392 114.432 68.3392C118.61 68.3392 122 69.0604 122 69.9513C122 70.8402 118.61 71.5613 114.432 71.5613C110.255 71.5613 106.867 70.8402 106.867 69.9513Z" fill="#F77F00"/>
<path d="M113.989 110.007C113.363 110.634 110.459 108.755 107.51 105.807C104.56 102.856 102.678 99.954 103.308 99.324C103.936 98.6961 106.838 100.578 109.788 103.528C112.739 106.477 114.619 109.379 113.989 110.007Z" fill="#F77F00"/>
</svg>
