<svg width="48" height="48" viewBox="0 0 48 48" fill="none" xmlns="http://www.w3.org/2000/svg">
<path d="M24 0.5625C19.3645 0.5625 14.8331 1.93709 10.9788 4.51243C7.12456 7.08778 4.12051 10.7482 2.34658 15.0309C0.572655 19.3135 0.108515 24.026 1.01286 28.5724C1.9172 33.1189 4.1494 37.295 7.4272 40.5728C10.705 43.8506 14.8812 46.0828 19.4276 46.9872C23.974 47.8915 28.6865 47.4274 32.9692 45.6534C37.2518 43.8795 40.9122 40.8755 43.4876 37.0212C46.0629 33.1669 47.4375 28.6355 47.4375 24C47.4307 17.7861 44.9592 11.8286 40.5653 7.43472C36.1714 3.04082 30.2139 0.569324 24 0.5625ZM24 45.5625C19.7353 45.5625 15.5665 44.2979 12.0205 41.9286C8.47459 39.5592 5.71087 36.1916 4.07886 32.2516C2.44684 28.3116 2.01983 23.9761 2.85183 19.7934C3.68382 15.6106 5.73745 11.7686 8.75302 8.75301C11.7686 5.73744 15.6107 3.68381 19.7934 2.85182C23.9761 2.01982 28.3116 2.44683 32.2516 4.07885C36.1917 5.71086 39.5593 8.47458 41.9286 12.0205C44.2979 15.5665 45.5625 19.7353 45.5625 24C45.5563 29.7168 43.2826 35.1977 39.2401 39.2401C35.1977 43.2825 29.7168 45.5563 24 45.5625ZM34.3125 24C34.3125 24.2486 34.2137 24.4871 34.0379 24.6629C33.8621 24.8387 33.6236 24.9375 33.375 24.9375H16.8891L22.7883 30.8367C22.9642 31.0126 23.063 31.2512 23.063 31.5C23.063 31.7488 22.9642 31.9874 22.7883 32.1633C22.6124 32.3392 22.3738 32.438 22.125 32.438C21.8762 32.438 21.6376 32.3392 21.4617 32.1633L13.9617 24.6633C13.8746 24.5762 13.8054 24.4728 13.7582 24.359C13.7111 24.2452 13.6868 24.1232 13.6868 24C13.6868 23.8768 13.7111 23.7548 13.7582 23.641C13.8054 23.5272 13.8746 23.4238 13.9617 23.3367L21.4617 15.8367C21.6376 15.6608 21.8762 15.562 22.125 15.562C22.3738 15.562 22.6124 15.6608 22.7883 15.8367C22.9642 16.0126 23.063 16.2512 23.063 16.5C23.063 16.7488 22.9642 16.9874 22.7883 17.1633L16.8891 23.0625H33.375C33.6236 23.0625 33.8621 23.1613 34.0379 23.3371C34.2137 23.5129 34.3125 23.7514 34.3125 24Z" fill="#6D6D6D"/>
</svg>
