<svg width="48" height="48" viewBox="0 0 48 48" fill="none" xmlns="http://www.w3.org/2000/svg">
<path d="M24 47.4375C28.6355 47.4375 33.1669 46.0629 37.0212 43.4876C40.8754 40.9122 43.8795 37.2518 45.6534 32.9691C47.4273 28.6865 47.8915 23.974 46.9871 19.4276C46.0828 14.8811 43.8506 10.705 40.5728 7.42719C37.295 4.14939 33.1188 1.91719 28.5724 1.01285C24.026 0.108509 19.3135 0.572647 15.0308 2.34658C10.7482 4.12051 7.08777 7.12455 4.51242 10.9788C1.93708 14.8331 0.562492 19.3645 0.562492 24C0.569317 30.2139 3.04081 36.1714 7.43471 40.5653C11.8286 44.9592 17.7861 47.4307 24 47.4375ZM24 2.4375C28.2647 2.4375 32.4335 3.70212 35.9795 6.07144C39.5254 8.44076 42.2891 11.8084 43.9211 15.7484C45.5532 19.6884 45.9802 24.0239 45.1482 28.2066C44.3162 32.3894 42.2625 36.2314 39.247 39.247C36.2314 42.2626 32.3893 44.3162 28.2066 45.1482C24.0239 45.9802 19.6884 45.5532 15.7484 43.9212C11.8083 42.2891 8.44075 39.5254 6.07143 35.9795C3.70211 32.4335 2.43749 28.2647 2.43749 24C2.4437 18.2832 4.71745 12.8023 8.75986 8.75986C12.8023 4.71746 18.2832 2.44371 24 2.4375ZM13.6875 24C13.6875 23.7514 13.7863 23.5129 13.9621 23.3371C14.1379 23.1613 14.3764 23.0625 14.625 23.0625H31.1109L25.2117 17.1633C25.0358 16.9874 24.937 16.7488 24.937 16.5C24.937 16.2512 25.0358 16.0126 25.2117 15.8367C25.3876 15.6608 25.6262 15.562 25.875 15.562C26.1238 15.562 26.3624 15.6608 26.5383 15.8367L34.0383 23.3367C34.1254 23.4238 34.1946 23.5272 34.2418 23.641C34.2889 23.7548 34.3132 23.8768 34.3132 24C34.3132 24.1232 34.2889 24.2452 34.2418 24.359C34.1946 24.4728 34.1254 24.5762 34.0383 24.6633L26.5383 32.1633C26.3624 32.3392 26.1238 32.438 25.875 32.438C25.6262 32.438 25.3876 32.3392 25.2117 32.1633C25.0358 31.9874 24.937 31.7488 24.937 31.5C24.937 31.2512 25.0358 31.0126 25.2117 30.8367L31.1109 24.9375H14.625C14.3764 24.9375 14.1379 24.8387 13.9621 24.6629C13.7863 24.4871 13.6875 24.2486 13.6875 24Z" fill="#6D6D6D"/>
</svg>
