<svg width="47" height="47" viewBox="0 0 47 47" fill="none" xmlns="http://www.w3.org/2000/svg">
<path d="M23.4375 0C18.802 0 14.2706 1.37459 10.4163 3.94993C6.56206 6.52528 3.55801 10.1857 1.78408 14.4684C0.0101547 18.751 -0.453985 23.4635 0.450356 28.0099C1.3547 32.5564 3.5869 36.7325 6.8647 40.0103C10.1425 43.2881 14.3187 45.5203 18.8651 46.4247C23.4115 47.329 28.124 46.8649 32.4067 45.0909C36.6893 43.317 40.3497 40.313 42.9251 36.4587C45.5004 32.6044 46.875 28.073 46.875 23.4375C46.8682 17.2236 44.3967 11.2661 40.0028 6.87222C35.6089 2.47832 29.6514 0.00682405 23.4375 0ZM23.4375 45C19.1728 45 15.004 43.7354 11.458 41.3661C7.91209 38.9967 5.14837 35.6291 3.51636 31.6891C1.88434 27.7491 1.45733 23.4136 2.28933 19.2309C3.12132 15.0481 5.17495 11.2061 8.19052 8.19051C11.2061 5.17494 15.0482 3.12131 19.2309 2.28932C23.4136 1.45732 27.7491 1.88433 31.6891 3.51635C35.6292 5.14836 38.9968 7.91208 41.3661 11.458C43.7354 15.0039 45 19.1728 45 23.4375C44.9938 29.1543 42.7201 34.6352 38.6776 38.6776C34.6352 42.72 29.1543 44.9938 23.4375 45ZM33.75 23.4375C33.75 23.6861 33.6512 23.9246 33.4754 24.1004C33.2996 24.2762 33.0611 24.375 32.8125 24.375H16.3266L22.2258 30.2742C22.4017 30.4501 22.5005 30.6887 22.5005 30.9375C22.5005 31.1863 22.4017 31.4249 22.2258 31.6008C22.0499 31.7767 21.8113 31.8755 21.5625 31.8755C21.3137 31.8755 21.0751 31.7767 20.8992 31.6008L13.3992 24.1008C13.3121 24.0137 13.2429 23.9103 13.1957 23.7965C13.1486 23.6827 13.1243 23.5607 13.1243 23.4375C13.1243 23.3143 13.1486 23.1923 13.1957 23.0785C13.2429 22.9647 13.3121 22.8613 13.3992 22.7742L20.8992 15.2742C21.0751 15.0983 21.3137 14.9995 21.5625 14.9995C21.8113 14.9995 22.0499 15.0983 22.2258 15.2742C22.4017 15.4501 22.5005 15.6887 22.5005 15.9375C22.5005 16.1863 22.4017 16.4249 22.2258 16.6008L16.3266 22.5H32.8125C33.0611 22.5 33.2996 22.5988 33.4754 22.7746C33.6512 22.9504 33.75 23.1889 33.75 23.4375Z" fill="#F6F6F6"/>
</svg>
